# xmcd
#
# Track frame offsets:
#	150
#	20766
#	47033
#	63900
#	79838
#	97669
#	115901
#	133294
#	151645
#	168634
#	187931
#	204699
#	222414
#	240623
#	259671
#	276389
#	294726
#
# Disc length: 4186 seconds
#
# Revision: 1
# Processed by: cddbd v1.5.1PL0 Copyright (c) Steve Scherf et al.
# Submitted via: audiograbber 1.83.01
#
DISCID=f9105811
DTITLE=Lewis, Meade Lux - Piano and Harpsichord Solos 1939-1941
DYEAR=1994
DGENRE=Blues
TTITLE0=Twos and Fews
TTITLE1=Nagasaki
TTITLE2=Untitled Lewis Original
TTITLE3=Messin Around
TTITLE4=Deep Fives
TTITLE5=Blues De Lux
TTITLE6=Closing Hour Blues
TTITLE7=Far Ago Blues
TTITLE8=Basin Street blues
TTITLE9=Honky Tonk Train Blues
TTITLE10=Bass on Top
TTITLE11=Six Wheel Chaser
TTITLE12=Tell Your Story
TTITLE13=Tell Your Story N 2
TTITLE14=Rising Tide Blues
TTITLE15=Nineteen Ways of Playing a Chorus
TTITLE16=School of Rhythm
EXTD=
EXTT0=
EXTT1=
EXTT2=
EXTT3=
EXTT4=
EXTT5=
EXTT6=
EXTT7=
EXTT8=
EXTT9=
EXTT10=
EXTT11=
EXTT12=
EXTT13=
EXTT14=
EXTT15=
EXTT16=
PLAYORDER=
